<svg xmlns="http://www.w3.org/2000/svg" viewBox="0 0 572 542"><path fill="#f3f4f4" stroke="#f3f4f4" d="M0 271.002v271.001l286.25-.251 286.25-.252.252-270.75L573.004 0H0v271.002m.493.498c0 149.05.116 209.876.257 135.169.141-74.706.141-196.656 0-271C.608 61.326.493 122.45.493 271.5M267.5 36.867c-23.384 6.719-43.269 30.346-63.408 75.338-17.305 38.66-47.575 132.9-53.634 166.974l-.654 3.68 15.348 12.07c14.605 11.486 24.093 19.369 20.848 17.322-28.056-17.698-73.65-61.902-81.01-78.54-2.713-6.134-2.026-7.157 6.58-9.798 4.086-1.254 7.43-2.598 7.43-2.988 0-.66 3.548-1.903 7-2.453.825-.131 4.351-1.002 7.837-1.936 3.485-.933 6.593-1.439 6.908-1.125.314.315 1.158.084 1.876-.511.717-.596 3.22-1.267 5.562-1.493 2.342-.226 6.071-1.062 8.288-1.859 2.216-.797 5.56-1.369 7.432-1.271l3.403.179 8.816-26.426c4.848-14.535 8.625-26.616 8.393-26.848-.842-.843-31.406 4.009-46.505 7.383-48.288 10.788-71.312 23.315-82.127 44.682-3.767 7.442-5.502 18.32-4.108 25.753l1.031 5.5-.285-8c-.157-4.4-.113-6.65.098-5 .865 6.781 2.69 14.427 3.346 14.022.386-.239.766.109.844.772.656 5.571 2.128 10.994 3.38 12.451.829.965 1.786 2.543 2.128 3.505.341.962 1.044 1.75 1.562 1.75.519 0 1.905 1.989 3.082 4.419 1.176 2.431 2.792 4.961 3.589 5.623.798.661 1.457 1.935 1.465 2.83.014 1.417.142 1.433.985.128.704-1.09.974-1.142.985-.191.008.72.465 1.031 1.015.691.55-.34 1-.019 1 .713 0 2.221 6.125 8.953 7.622 8.378.856-.328 1.378.154 1.378 1.271 0 .99 1.089 2.383 2.42 3.095 1.39.744 2.196 1.88 1.893 2.669-.29.756-.125 1.374.366 1.374.492 0 2.885 1.749 5.319 3.887 2.552 2.243 5.04 3.652 5.878 3.331.939-.361 1.195-.141.723.621-.448.726.447 1.849 2.33 2.92 1.682.958 3.061 2.304 3.065 2.991.003.688.344 1.284.756 1.327 3.024.308 4.603 1.015 5.802 2.597 1.1 1.451 1.398 1.518 1.452.326.043-.97.515-.694 1.333.781.697 1.255 1.561 1.987 1.921 1.628.36-.36.439.638.176 2.218-.316 1.902-.175 2.416.417 1.52.675-1.021 1.385-1.091 2.89-.285 1.098.587 2.28.783 2.628.436.347-.347.631-.106.631.535 0 .642.675 1.167 1.5 1.167s1.5-.477 1.5-1.059.477-.764 1.06-.404c.673.416.424 1.12-.68 1.927-1.621 1.186-1.586 1.355.518 2.481 1.242.665 2.893.966 3.668.668.776-.298 1.344-.22 1.263.173-.316 1.538 1.436 4.168 2.385 3.582.553-.342 2.081.631 3.395 2.161 1.315 1.53 2.405 2.375 2.423 1.877.017-.499.649-.092 1.404.904.895 1.181 1.606 1.432 2.044.722.37-.598-.159-1.863-1.175-2.81-1.016-.947-1.41-1.385-.876-.972 1.549 1.196 2.571.875 2.571-.809 0-.857.381-1.323.847-1.035.981.606.918 4.575-.099 6.205-.382.61-.402 1.401-.046 1.758.798.797 4.363-4.455 3.725-5.488-.253-.408.11-1.071.807-1.472.696-.401.928-.357.514.1-.414.456.036 1.729 1 2.829 1.667 1.904 1.667 1.97.002 1.363-.963-.351-1.75-.25-1.75.223 0 .474.668 1.118 1.485 1.432 1.544.592 3.948-2.59 2.813-3.725-.347-.347-.106-.631.535-.631.642 0 1.167.633 1.167 1.406 0 .928.701 1.223 2.059.868 1.518-.397 2.207.028 2.623 1.617.527 2.017.646 2.042 1.85.396 1.221-1.67 1.404-1.658 3.55.226 1.244 1.093 1.933 1.425 1.531.737-1.225-2.096.684-1.394 2.849 1.047 1.121 1.264 1.704 1.785 1.297 1.158-1.252-1.923.3-2.385 2.289-.682 1.034.885 1.558 2.107 1.166 2.715-.393.609.313-.04 1.569-1.441 1.495-1.669 2.06-1.939 1.638-.784-.355.969-.032 2.516.717 3.437 1.199 1.475 1.136 1.59-.529.964-1.584-.594-1.692-.469-.664.769.675.814.937 1.949.582 2.523-.355.574.083 1.044.973 1.044s1.381-.384 1.091-.853c-.29-.469.077-1.678.814-2.687 1.273-1.74 1.38-1.712 2.095.54.699 2.204.845 2.248 2.037.618 1.203-1.644 1.328-1.62 1.963.382.65 2.048.741 2.062 2.164.319 1.399-1.714 1.456-1.685.983.51-.387 1.799-.149 2.194 1.046 1.735 1.166-.447 1.418-.096 1.021 1.421-.29 1.108-.119 2.015.38 2.015.498 0 .906-.505.906-1.122 0-.78.455-.745 1.489.113.819.68 1.262 1.604.984 2.053-.278.45-.079 1.081.442 1.403.521.322 1.227.132 1.57-.423.389-.629 2.109-.252 4.569 1.004 2.17 1.107 3.946 1.554 3.946.992 0-.561.695-1.02 1.544-1.02.905 0 1.422.709 1.25 1.714-.179 1.044.474 1.87 1.674 2.115 1.71.349 1.792.189.628-1.214-.738-.888-.906-1.615-.373-1.615 1.212 0 4.136 3.167 4.131 4.475-.002.536.48 1.136 1.072 1.334.647.215.822-.373.44-1.475-.559-1.616-.451-1.597.911.155.85 1.094 1.334 2.331 1.075 2.75-.258.419-.02.761.53.761s1.261-.422 1.58-.939c.943-1.526 4.875-.261 6.767 2.177 1.499 1.931 1.901 2.042 2.748.762.909-1.375 1.107-1.075 1.002 1.52-.045 1.114 2.568 3.242 3.378 2.75.471-.286.246-.907-.5-1.38-1.097-.695-1.104-.862-.036-.875 1.642-.019 4.482 2.703 3.292 3.155-.484.183-.457 1.428.06 2.806.71 1.891 1.13 2.152 1.777 1.104.494-.798 1.564-1.097 2.56-.714 1.333.511 1.563.266 1.04-1.105-.504-1.319-.146-1.196 1.427.489 2.371 2.539 3.624 2.827 4.361 1 .301-.747.536-.545.583.5.043.962.642 1.757 1.329 1.765.92.012.892.243-.107.875-.961.609-1.029 1.062-.233 1.554.617.382.804 1.226.414 1.875-.452.754-.127.711.897-.119 1.364-1.105 2.021-.879 4.369 1.5 1.521 1.54 2.239 2.084 1.596 1.208-1.769-2.41-.291-3.013 1.934-.788 1.074 1.074 2.29 1.745 2.702 1.49.412-.255.749.434.749 1.531 0 1.869-.08 1.884-1.285.235-1.542-2.108-1.703-1.023-.251 1.69 1.289 2.407 3.812 2.49 5.607.184 1.281-1.645 1.324-1.638.709.115-.544 1.553-.293 1.751 1.498 1.183 1.266-.402 2.202-.244 2.276.385.237 2.027.409 2.572 1.199 3.817.46.724.33 1.25-.309 1.25-.606 0-.97.775-.809 1.722.212 1.239-3.63 4.318-13.706 10.986-7.7 5.095-14.885 9.95-15.968 10.789-3.722 2.887-38.042 19.326-45.868 21.971-13.502 4.563-14.646 3.432-16.486-16.3-.496-5.317-.964-8.029-1.04-6.025-.131 3.466-2.38 5.893-3.612 3.899-.296-.479.004-1.052.667-1.273.748-.249.541-.657-.545-1.074-1.048-.402-1.506-.275-1.141.316.336.544.134.989-.448.989-.582 0-1.006.337-.941.75.333 2.108-.219 4.306-.965 3.844-.994-.614-.903-5.178.124-6.204.388-.388.201-1.314-.415-2.056-.635-.766-.874-2.874-.551-4.865.364-2.243.205-3.288-.44-2.89-.555.344-.889 2.589-.741 4.99.336 5.468-.516 6.38-3.107 3.323-1.392-1.642-1.835-1.84-1.413-.629.338.969.001 2.516-.748 3.437-1.174 1.444-1.144 1.593.221 1.083.966-.362 1.584-.054 1.584.79 0 .839-.818 1.251-2.084 1.05-1.145-.182-1.532-.141-.858.091.766.265 1.152 2.117 1.029 4.941-.108 2.485-.36 4.026-.561 3.425-.2-.601-.845-.795-1.433-.432-.632.391-.777.189-.355-.493.411-.666.112-1.155-.707-1.155-.965 0-1.272.779-.956 2.429.335 1.756.92 2.258 2.111 1.813 1.416-.53 1.46-.386.311 1.027-.735.904-1.077 2.062-.761 2.574.317.512-.068.869-.855.794-.787-.075-1.457.2-1.489.613-.29 3.707.215 4.904 2.422 5.743 1.654.628 2.284 1.456 1.891 2.48-.417 1.086.476 1.983 3.034 3.052 4.129 1.725 12.594 2.492 12.594 1.141 0-.495.92-.659 2.044-.365 1.124.294 3.262-.101 4.75-.877s4.056-1.421 5.706-1.433c2.306-.017 2.653-.246 1.5-.991-1.383-.894 1.263-1.59 4.25-1.118.412.065.75-.359.75-.941s.397-.814.883-.514c1.025.634 12.094-3.004 13.54-4.45.537-.537 1.754-.977 2.704-.977.949 0 1.932-.788 2.184-1.75.435-1.667.463-1.667.573 0 .064.962.552 1.75 1.085 1.75.532 0 .731-.617.442-1.371-.464-1.209.408-1.993 2.825-2.541.405-.092 2.623-.833 4.929-1.646 3.355-1.184 4.355-1.226 4.999-.211.585.921.81.789.821-.481.009-1.078.783-1.75 2.015-1.75 1.1 0 2-.342 2-.759 0-.418.947-1.351 2.105-2.074 1.743-1.089 1.975-1.087 1.353.009-.414.728.232.312 1.434-.926 1.845-1.899 5.239-2.861 8.358-2.368.412.065.75-.276.75-.757s1.38-1.151 3.066-1.488c1.687-.338 2.819-1.014 2.517-1.504-.303-.489.792-1.158 2.433-1.486 1.747-.35 2.984-1.229 2.984-2.122 0-.839.45-1.525 1-1.525s1 .44 1 .979c0 1.809 4.812-1.159 5.432-3.351.599-2.121.607-2.121 2.219-.128 1.318 1.629 1.506 1.675 1.015.25-.332-.962-.216-1.75.257-1.75s1.143-1.125 1.488-2.5c.603-2.405 2.589-3.556 2.589-1.5 0 .55.45 1 1 1s.887-.516.75-1.147c-.234-1.072 2.622-1.49 12-1.76 1.787-.051 3.197-.43 3.132-.843-.298-1.883.223-2.408 1.409-1.423.981.814 1.329.565 1.45-1.038.153-2.027 1.802-3.742 3.631-3.774.497-.008.497.544 0 1.282-.479.714-.053.4.947-.696 1.533-1.68 1.964-1.766 2.735-.548.697 1.103.919 1.132.931.126.008-.727.69-1.997 1.515-2.822.865-.865 1.5-1.03 1.5-.389 0 .61.985.192 2.189-.929 2.604-2.426 4.811-2.647 4.811-.48 0 .857.45 1.281 1 .941.55-.34 1-1.293 1-2.118s-.419-1.241-.931-.925c-.512.317-1.213.118-1.559-.441-.345-.559.074-1.016.931-1.016.857 0 1.566-.562 1.574-1.25.012-.936.228-.915.861.084.692 1.091.947 1.068 1.405-.125.308-.803 1.798-1.459 3.312-1.459 1.513 0 3.319-.776 4.012-1.725.694-.949 1.742-1.429 2.328-1.066.604.373 1.074-.126 1.082-1.15.013-1.534.163-1.581.985-.309.788 1.219.972 1.09.985-.691.016-2.384 1.851-4.098 2.877-2.687.818 1.125 3.176 1.616 3.02.628-.362-2.289.428-2.812 3.673-2.433 2.611.304 3.958-.081 5.074-1.451.836-1.026 1.308-1.416 1.05-.866-.258.55.198 1.617 1.014 2.372 1.287 1.19 1.453.992 1.252-1.5-.269-3.33.822-6.372 2.284-6.372.586 0 .489.635-.229 1.5-1.868 2.251.588 1.912 2.9-.4 1.25-1.25 2.238-1.562 2.887-.913 1.005 1.005 2.658-.637 2.705-2.687.013-.55 1.145-1.049 2.516-1.108 1.371-.06 2.942-.241 3.492-.403.55-.161 1.675-.348 2.5-.415.837-.068 1.37-.885 1.206-1.848-.161-.949.176-1.726.75-1.726.574 0 1.051.788 1.059 1.75.013 1.452.172 1.502.934.298.506-.799.744-1.736.529-2.084-.215-.347.265-.631 1.066-.631s1.456.407 1.456.905c0 .498.688.217 1.529-.624s2.191-1.275 3-.965c.847.325 1.477-.011 1.486-.792.013-1.083.18-1.098.83-.073 1.071 1.688 4.188.466 3.485-1.367-.299-.779-.019-1.417.622-1.417s.971-.337.732-.75c-.238-.413-.116-1.626.273-2.696.672-1.851.735-1.839 1.282.251.316 1.209.209 1.972-.239 1.695-.447-.276-.293.617.344 1.986 3.337 7.181-1.058-14.445-6.782-33.366-1.394-4.61-2.305-9.56-2.025-11 .459-2.361.414-2.407-.446-.466-1.256 2.832-31.6 29.346-33.585 29.346-.358 0 .275-1.178 1.408-2.618 1.132-1.439 1.806-3.025 1.498-3.524-.308-.499.035-.784.764-.633.732.152 1.263-.502 1.187-1.464-.075-.957.237-1.508.694-1.226 1.217.753 6.227-8.266 5.366-9.66-.431-.697-.305-.92.306-.542 1.33.821 3.709-4.815 2.713-6.427-.467-.756-.333-.956.356-.531.7.433 1.678-1.239 2.66-4.546 12.18-41.013-8.761-84.846-47.709-99.866-17.691-6.822-39.285-7.584-55.249-1.949-44.095 15.563-66.723 60.698-52.054 103.828 2.995 8.804 6.396 15.374 7.581 14.641.522-.323.721.01.441.74-.677 1.765 5.414 9.968 6.776 9.126.606-.374.774-.188.391.433-.712 1.152 4.171 6.583 10.865 12.083 2.2 1.807 3.325 2.948 2.5 2.534-2.643-1.324-37.589-25.41-41.006-28.263l-3.293-2.749 1.25-6.626c.687-3.645.91-7.176.495-7.848-.433-.701-.339-.965.22-.619 1.079.667 8.7-30.776 8.721-35.979.008-1.954.419-2.943 1.063-2.558.578.345.513-.037-.143-.849-.839-1.038-.885-1.91-.155-2.942.814-1.151.896-1.037.383.534-.503 1.539-.38 1.729.532.824.652-.647 1.233-2.98 1.291-5.185.057-2.205.401-3.528.764-2.942.991 1.604 2.115-2.833 1.38-5.447-.518-1.841-.424-1.978.519-.75.952 1.239 1.067 1.109.659-.751-.271-1.239-.106-2.013.367-1.72 1.167.721 3.123-6.852 2.368-9.172-.403-1.239-.306-1.446.289-.624.589.813 2.536-4.126 5.715-14.5 6.452-21.05 7.422-24.384 7.778-26.733.167-1.1.866-2.595 1.553-3.321.688-.727 1.25-1.907 1.25-2.622 0-1.358 13.154-35.085 14.915-38.244.556-.997 3.73-7.863 7.053-15.258 9.067-20.177 22.259-42.258 26.222-43.888.445-.184.81-.874.81-1.535 0-1.459 5.149-4.632 7.518-4.632 1.46 0 1.61.659 1.032 4.512-.554 3.697-.306 4.983 1.373 7.118 1.127 1.433 1.762 3.07 1.411 3.639-.352.568.685 2.203 2.302 3.632 1.618 1.43 2.332 2.182 1.586 1.671-.745-.51 1.71 3.836 5.456 9.658 3.747 5.822 7.147 10.378 7.556 10.126.408-.253.447.312.085 1.256-.415 1.08-.267 1.474.398 1.063.601-.372.998.097.92 1.086-.075.956.409 1.632 1.077 1.501.749-.147.971.395.58 1.414-.422 1.101-.247 1.413.525.936.78-.482.943-.156.5 1-.483 1.256-.304 1.497.666.898.88-.545 1.085-.433.612.333-.908 1.469 2.445 7.249 3.741 6.448.534-.33.656-.09.27.534-.385.623-.222 2.028.364 3.122.947 1.77 2.292 2.023 12.296 2.307 6.177.175 1.107.413-11.268.529-27.48.258-68.978 2.136-70.929 3.21-2.339 1.288-21.928 53.483-20.579 54.832.279.28.508.093.508-.416 0-.508 2.137-.848 4.75-.757l4.75.167-4.5-.759c-2.475-.418-3.6-.88-2.5-1.028 1.1-.148 2.385-.2 2.855-.115.471.084 1.428-.322 2.128-.903 1.072-.89 16.683-2.116 28.267-2.22 1.788-.016 3.25-.334 3.25-.707 0-1.206 122.93.107 130 1.388 1.375.25 4.75.661 7.5.914s8.15 1 12 1.659c3.85.659 7.9 1.33 9 1.492 1.1.161 2 .34 2 .397 0 .057 3.223.283 7.162.501 3.94.219 8.143.922 9.341 1.563 1.197.641 4.049 1.353 6.337 1.582 7.883.789 9.248 1.101 11.7 2.675 2.305 1.48 10.092 4.09 12.574 4.216.613.031 1.738.521 2.5 1.089.763.568 2.961 1.84 4.886 2.827 2.473 1.269 3.5 2.474 3.5 4.107 0 1.272-.301 2.126-.669 1.898-.369-.227-1.349.266-2.179 1.096-2.852 2.852-13.862.195-15.499-3.741-.191-.459-1.715 1.322-3.386 3.958-6.003 9.471-15.084 20.429-32.463 39.177l-4.992 5.386 2.231 7.614 6.844 23.341c2.537 8.649 4.613 16.03 4.613 16.403 0 .372.84-.292 1.867-1.476 1.027-1.184 2.118-2.153 2.423-2.153.934 0 6.71-6.092 6.71-7.077 0-.508.453-.923 1.007-.923.553 0 1.984-1.125 3.18-2.5 1.195-1.375 2.768-2.5 3.493-2.5.726 0 1.231-.337 1.122-.75-.409-1.549 1.379-5.256 2.27-4.706.51.316.928.097.928-.485s.675-1.059 1.5-1.059 1.534-.337 1.577-.75c.362-3.553 1.923-7.137 1.923-4.417 0 2.419 1.868 1.044 2.502-1.842.363-1.655 1.023-2.784 1.466-2.511.985.609 3.245-1.933 2.438-2.741-.318-.317.416-1.108 1.629-1.758 1.679-.898 2.033-.9 1.481-.007-.485.784-.029.739 1.372-.136 1.338-.836 1.895-1.946 1.539-3.068-.389-1.224-.134-1.595.841-1.221.798.307 1.47-.126 1.565-1.006.092-.849.242-2.156.334-2.906.103-.843.925-1.164 2.156-.842 1.285.336 1.749.131 1.311-.578-.647-1.047 2.935-5.217 4.482-5.217.406 0 .57-1.33.364-2.956-.285-2.251.269-3.503 2.323-5.25 1.61-1.37 2.692-3.301 2.684-4.794-.007-1.375.358-3.029.811-3.676.453-.647.687-1.772.52-2.5-.168-.728.139-1.324.682-1.324s.834.675.648 1.5c-.186.825-.01 1.177.391.783 1.277-1.257 1.38-6.21.148-7.107-.778-.567-.593-.674.536-.312 2.046.656 5.266-3.275 3.846-4.695-.502-.502-.692-1.487-.423-2.19.27-.702.01-1.574-.578-1.937-.587-.363-1.061-1.196-1.053-1.851.01-.722.41-.601 1.019.309.874 1.308 1.134 1.276 2.034-.25.567-.963 1.774-1.75 2.682-1.75 1.283 0 1.383-.267.45-1.2-1.522-1.522-1.63-7.183-.119-6.25.595.368.838 1.857.541 3.309-.448 2.195-.289 2.083.945-.664.816-1.817 1.178-3.799.804-4.404-.374-.605-.273-.853.224-.55.498.302 1.485-.079 2.194-.846 1.065-1.152.994-1.395-.405-1.395-1.554 0-1.544-.166.116-2 1.092-1.207 1.336-2 .616-2-.881 0-.856-.367.095-1.395.709-.767 1.696-1.148 2.194-.846.53.323.542-.03.028-.854-1.296-2.077-1.399-3.905-.22-3.905 1.028 0 .652-3.511-.802-7.5-.401-1.1-.374-1.678.061-1.285.436.393 1.636 3.543 2.668 7 1.318 4.415 1.699 5.095 1.282 2.285-.764-5.139-4.395-13.635-5.528-12.935-.479.297-.575-.233-.213-1.177.483-1.256.304-1.497-.666-.898-.878.543-1.085.433-.614-.329 2.391-3.869-17.928-19.472-32.508-24.962-25.412-9.57-67.482-15.707-112.393-16.393l-14-.214 12.702-.546 12.702-.546-11.286-23C331.417 52.762 302.17 26.904 267.5 36.867m33.011 76.51c.946 1.443 1.908 2.623 2.139 2.623.724 0-1.605-3.854-2.759-4.567-.604-.374-.325.501.62 1.944M306 122c.589 1.1 1.295 2 1.57 2 .275 0 .019-.9-.57-2s-1.295-2-1.57-2c-.275 0-.019.9.57 2m16.75 78.662c.688.278 1.813.278 2.5 0 .688-.277.125-.504-1.25-.504s-1.937.227-1.25.504m-63 2c.688.278 1.813.278 2.5 0 .688-.277.125-.504-1.25-.504s-1.937.227-1.25.504m84.553.645c4.732 11.924 6.054 14.591 6.956 14.033.616-.381.753-.168.331.514-1.011 1.636.326 5.316 1.637 4.506.644-.398.794-.203.37.483-.392.634.744 4.987 2.524 9.674 1.868 4.917 3.544 8.025 3.962 7.349.421-.681.712-.166.695 1.231-.016 1.322 1.627 6.678 3.652 11.903 2.025 5.225 4.755 13.55 6.066 18.5 2.848 10.747 6.304 20.592 6.494 18.5.08-.872.538-.497 1.095.895.527 1.317.719 3.148.426 4.069-.292.922.117 3.444.908 5.606.792 2.161 1.472 3.397 1.511 2.745.038-.652-.393-2.402-.958-3.889-.565-1.487-.838-2.893-.606-3.125.663-.663 4.634 12.327 4.634 15.158 0 1.398.368 2.541.817 2.541.621 0 3.816 8.187 4.682 12 1.208 5.314 1.993 7.905 3.301 10.893.868 1.984 1.606 3.907 1.639 4.274.034.366.398 1.004.811 1.416.413.413.75 1.774.75 3.025s.457 2.557 1.016 2.902c.559.346.784 1.005.499 1.466-.285.461.495.576 1.734.257 2.005-.516 2.101-.397.879 1.094-1.203 1.466-1.12 1.673.666 1.673 1.122 0 2.228-.337 2.459-.75.23-.413.282-.187.114.5-.377 1.55.861 1.622 2.346.137.612-.612 1.602-.81 2.2-.441 2.349 1.452.874 2.422-3.413 2.242-4.857-.203-5.991.721-2.088 1.701 1.576.395 2.314 1.213 2.129 2.358-.414 2.573.379 3.405 1.901 1.993.974-.904 1.028-1.439.197-1.975-.639-.412.068-.741 1.611-.75 1.512-.008 2.75-.492 2.75-1.074 0-.582.526-.734 1.17-.336.782.484.962.182.542-.912-.781-2.035 1.834-4.805 3.817-4.044.809.311 1.471.04 1.471-.601s-.419-.907-.931-.591c-.512.317-1.213.118-1.559-.441-.345-.559-.151-1.016.431-1.016s1.088-.788 1.122-1.75c.047-1.284.316-1.121 1.01.614.755 1.885 1.231 2.128 2.348 1.202 1.526-1.267 3.166.175 2.122 1.865-.317.512-.118 1.213.441 1.559.559.345 1.016-.022 1.016-.817 0-.794.637-2.672 1.416-4.173 1.388-2.676 1.421-2.685 1.75-.442.183 1.257.959 2.491 1.723 2.743.832.275 1.113.012.702-.654-.379-.612-.383-2.74-.01-4.729.452-2.406.948-3.181 1.483-2.315.442.716.539 1.73.216 2.254-.324.524-.12.662.452.309.573-.354 1.561-.018 2.196.748.88 1.06.859 1.49-.086 1.805-.897.299-.838.569.214.972.832.32 2.201-.431 3.2-1.755 1.717-2.277 1.704-2.31-.883-2.124-2.104.151-2.698-.31-2.987-2.312-.346-2.403-.302-2.424 1.127-.559 1.272 1.661 1.487 1.702 1.487.282 0-1.071.537-1.454 1.511-1.08 1.082.415 1.336.121.893-1.032-.459-1.197-.013-1.618 1.739-1.638 2.327-.026 2.322-.048-.393-1.731-3.393-2.104-3.488-2.992-.32-2.992 2.085 0 2.598.7 3.613 4.929.65 2.711 1.376 4.736 1.612 4.499.561-.561-2.708-13.929-3.669-15.004-.406-.454-.526.281-.268 1.633.508 2.657-1.122 4.466-2.303 2.555-.481-.778-.288-.901.575-.368 1.001.619 1.148.137.637-2.095-1.029-4.501-1.13-4.814-1.999-6.206-.449-.719-.543-2.519-.208-4 .495-2.196.411-2.37-.456-.943-1.79 2.946-2.816 1.957-2.333-2.25.291-2.529.054-4-.645-4-.607 0-.821-.457-.476-1.016.346-.559 1.16-.698 1.809-.308.65.389.507-.122-.318-1.136-.824-1.015-1.535-3.239-1.578-4.942-.133-5.147-1.487-9.676-2.674-8.943-.69.427-.86.076-.463-.958 1.904-4.963-25.365-87.986-29.286-89.165-1.697-.51-28.744-2.253-45.835-2.953-8.53-.35-11.218-.17-10.862.728m-100.553.399c1.238.238 3.262.238 4.5 0 1.238-.239.225-.434-2.25-.434s-3.488.195-2.25.434m170.5 1.983c.962.252 2.538.252 3.5 0 .962-.251.175-.457-1.75-.457s-2.712.206-1.75.457m7 1c.962.252 2.538.252 3.5 0 .962-.251.175-.457-1.75-.457s-2.712.206-1.75.457m7.563.994c.721.289 1.584.253 1.916-.079.332-.332-.258-.568-1.312-.525-1.165.048-1.402.285-.604.604m6 1c.721.289 1.584.253 1.916-.079.332-.332-.258-.568-1.312-.525-1.165.048-1.402.285-.604.604m5 1c.721.289 1.584.253 1.916-.079.332-.332-.258-.568-1.312-.525-1.165.048-1.402.285-.604.604M519.272 215c0 2.475.195 3.488.434 2.25.238-1.238.238-3.262 0-4.5-.239-1.238-.434-.225-.434 2.25m-359.522-1.338c.688.278 1.813.278 2.5 0 .688-.277.125-.504-1.25-.504s-1.937.227-1.25.504m-5 1c.688.278 1.813.278 2.5 0 .688-.277.125-.504-1.25-.504s-1.937.227-1.25.504m-4.937 1.021c.721.289 1.584.253 1.916-.079.332-.332-.258-.568-1.312-.525-1.165.048-1.402.285-.604.604m368.266 8.9c.048 1.165.285 1.402.604.605.289-.722.253-1.585-.079-1.917-.332-.332-.568.258-.525 1.312m-465 18c.048 1.165.285 1.402.604.605.289-.722.253-1.585-.079-1.917-.332-.332-.568.258-.525 1.312M54.086 246c-.031.825.381 2.175.914 3 1.181 1.828 1.181.249 0-2.5-.567-1.319-.878-1.489-.914-.5m225.029 7.58c-23.069 6.204-30.912 34.644-14.456 52.418 19.553 21.12 54.527 7.412 54.712-21.444.137-21.378-19.567-36.538-40.256-30.974M58 256.642c0 .537.7 1.849 1.555 2.917 1.467 1.83 1.487 1.798.365-.559-1.458-3.061-1.92-3.628-1.92-2.358m143.079 24.941c.048 1.165.285 1.402.604.605.289-.722.253-1.585-.079-1.917-.332-.332-.568.258-.525 1.312m-1 4c.048 1.165.285 1.402.604.605.289-.722.253-1.585-.079-1.917-.332-.332-.568.258-.525 1.312m-1 4c.048 1.165.285 1.402.604.605.289-.722.253-1.585-.079-1.917-.332-.332-.568.258-.525 1.312m-2 9c.048 1.165.285 1.402.604.605.289-.722.253-1.585-.079-1.917-.332-.332-.568.258-.525 1.312m233.559.917c.317.825.753 1.5.969 1.5.216 0 .393-.675.393-1.5s-.436-1.5-.969-1.5c-.532 0-.709.675-.393 1.5M93 301.378c0 .207.787.995 1.75 1.75 1.586 1.243 1.621 1.208.378-.378-1.307-1.666-2.128-2.195-2.128-1.372m102.079 6.205c.048 1.165.285 1.402.604.605.289-.722.253-1.585-.079-1.917-.332-.332-.568.258-.525 1.312M436.158 314c0 1.375.227 1.938.504 1.25.278-.687.278-1.812 0-2.5-.277-.687-.504-.125-.504 1.25m-247.24.344c1.431 1.782 5.082 4.124 5.082 3.259 0-.257-1.463-1.492-3.25-2.746-2.306-1.617-2.838-1.766-1.832-.513m-60.105 4.339c.721.289 1.584.253 1.916-.079.332-.332-.258-.568-1.312-.525-1.165.048-1.402.285-.604.604m305.266 13.9c.048 1.165.285 1.402.604.605.289-.722.253-1.585-.079-1.917-.332-.332-.568.258-.525 1.312M430.5 334c.34.55.816 1 1.059 1s.441-.45.441-1-.477-1-1.059-1-.781.45-.441 1m-1 3c.34.55 1.041 1 1.559 1s.941-.45.941-1-.702-1-1.559-1-1.281.45-.941 1m-292.059 7.38c-.34 1.354-.405 3.285-.146 4.291.268 1.037.523.422.589-1.421.114-3.182 2.223-4.504 3.608-2.263.703 1.138 9.508 7.325 9.508 6.681 0-.419-9.309-7.585-11.721-9.022-.786-.469-1.44.149-1.838 1.734M421 343.739c0 1.933.425 2.786 1.25 2.511.413-.137.757.313.765 1 .011.885.276.838.908-.159.49-.775.63-2.091.311-2.924-.419-1.093-.124-1.339 1.06-.884.903.346 1.858.28 2.122-.146.263-.427-1.072-.75-2.968-.718-2.077.035-3.448.56-3.448 1.32m24.079 1.844c.048 1.165.285 1.402.604.605.289-.722.253-1.585-.079-1.917-.332-.332-.568.258-.525 1.312m1.136 3.917c-.013 1.1.555 4.25 1.262 7s1.296 4.1 1.308 3c.013-1.1-.555-4.25-1.262-7s-1.296-4.1-1.308-3m-310.02 4c.02 1.65.244 2.204.498 1.231.254-.973.237-2.323-.037-3-.274-.677-.481.119-.461 1.769m16.164-.728c.791 1.28 6.641 5.609 6.641 4.915 0-.247-1.652-1.71-3.671-3.25s-3.356-2.289-2.97-1.665m232.72.811c.048 1.165.285 1.402.604.605.289-.722.253-1.585-.079-1.917-.332-.332-.568.258-.525 1.312m28.84-.333c-.515 1.583-.31 6.008.295 6.382.432.267.786-.242.786-1.132 0-1.004.474-1.35 1.25-.912 1 .564 1 .436 0-.641-1.571-1.692-1.636-3.304-.095-2.352.715.443.883.275.44-.44-.619-1.004-2.444-1.62-2.676-.905m29.681.515c.605.404 1.357 1.41 1.671 2.235.382 1.002.597.753.65-.75.053-1.512-.495-2.245-1.671-2.235-1.079.01-1.328.297-.65.75m-194.203 2.069c1.716 2.776 42.656 26.354 43.985 25.331.615-.473 7.981-5.921 16.368-12.107 14.312-10.555 19.153-15.128 12.221-11.543-1.667.862-3.536 1.254-4.155.871-.629-.388-.85-.25-.501.314 2.306 3.732-29.855 7.796-42.526 5.373-8.834-1.689-16.792-4.259-16.192-5.23.279-.451-.265-.524-1.209-.162-1.157.444-1.483.281-1-.5.468-.758.177-.951-.844-.56-.858.33-2.736-.172-4.175-1.115-1.438-.942-2.326-1.245-1.972-.672M135.195 359.5c.02 1.65.244 2.204.498 1.231.254-.973.237-2.323-.037-3-.274-.677-.481.119-.461 1.769m89.305.5c.34.55.816 1 1.059 1s.441-.45.441-1-.477-1-1.059-1-.781.45-.441 1m184.75.205c.137.662-.312 1.281-1 1.375-.687.093-1.475.283-1.75.42-.632.316-2.21.713-3.479.875-.538.069-.201 1.652.75 3.519 1.604 3.149 3.764 4.163 2.642 1.241-.274-.716.152-1.302.949-1.302.874 0 1.22.593.873 1.498-.353.919-.156 1.238.51.827.596-.369 1.282-.105 1.525.586.242.691.449 0 .46-1.536.025-3.472.688-4.175 2.977-3.159 3.391 1.506 6.224 1.436 5.62-.139-.431-1.123-.881-1.195-1.944-.313-1.045.867-1.383.859-1.383-.034 0-.649-.419-.922-.931-.606-.512.317-1.232.088-1.601-.509-.369-.596-1.363-.818-2.211-.493-1.207.463-1.295.296-.407-.774.623-.751.837-1.661.475-2.023-1.08-1.08-2.343-.747-2.075.547m-245.135 1.617c5.633 4.303 15.885 11.313 15.885 10.863 0-.607-16.814-12.685-17.659-12.685-.336 0 .462.82 1.774 1.822M367 361c0 .55.45 1 1 1s1-.45 1-1-.45-1-1-1-1 .45-1 1m82.079 2.583c.048 1.165.285 1.402.604.605.289-.722.253-1.585-.079-1.917-.332-.332-.568.258-.525 1.312M134.232 367c0 1.925.206 2.712.457 1.75.252-.962.252-2.538 0-3.5-.251-.962-.457-.175-.457 1.75m315.963 2.5c.02 1.65.244 2.204.498 1.231.254-.973.237-2.323-.037-3-.274-.677-.481.119-.461 1.769m-52.116 2.083c.048 1.165.285 1.402.604.605.289-.722.253-1.585-.079-1.917-.332-.332-.568.258-.525 1.312M412.5 371c.34.55.816 1 1.059 1s.441-.45.441-1-.477-1-1.059-1-.781.45-.441 1m-2.305 2.5c.02 1.65.244 2.204.498 1.231.254-.973.237-2.323-.037-3-.274-.677-.481.119-.461 1.769M133.232 375c0 1.925.206 2.712.457 1.75.252-.962.252-2.538 0-3.5-.251-.962-.457-.175-.457 1.75m273.581-2.317c.721.289 1.584.253 1.916-.079.332-.332-.258-.568-1.312-.525-1.165.048-1.402.285-.604.604m-225.029 1.557c.587.707 1.25 3.08 1.473 5.273l.407 3.987.168-4.643c.126-3.488-.24-4.8-1.473-5.273-1.253-.481-1.389-.325-.575.656m269.411 1.26c.02 1.65.244 2.204.498 1.231.254-.973.237-2.323-.037-3-.274-.677-.481.119-.461 1.769M406 374.393c0 .216.698.661 1.552.989.89.341 1.291.173.941-.393-.587-.951-2.493-1.406-2.493-.596m-6.921 2.19c.048 1.165.285 1.402.604.605.289-.722.253-1.585-.079-1.917-.332-.332-.568.258-.525 1.312M132.252 383.5c.011 2.2.216 2.982.455 1.738.239-1.244.23-3.044-.02-4s-.446.062-.435 2.262m267.906-1.5c0 1.375.227 1.938.504 1.25.278-.687.278-1.812 0-2.5-.277-.687-.504-.125-.504 1.25m52.037.5c.02 1.65.244 2.204.498 1.231.254-.973.237-2.323-.037-3-.274-.677-.481.119-.461 1.769m-47.862 1.044c0 .801.375 1.456.834 1.456.458 0 .833-.423.833-.941s-.375-1.173-.833-1.456c-.459-.283-.834.14-.834.941M182.272 388c0 2.475.195 3.488.434 2.25.238-1.238.238-3.262 0-4.5-.239-1.238-.434-.225-.434 2.25m88.228-2c-.34.55.11 1 1 1s1.34-.45 1-1c-.34-.55-.79-1-1-1-.21 0-.66.45-1 1m130.695 1.5c.02 1.65.244 2.204.498 1.231.254-.973.237-2.323-.037-3-.274-.677-.481.119-.461 1.769M320 389c0 .55.477 1 1.059 1s.781-.45.441-1-.816-1-1.059-1-.441.45-.441 1m-188.728 6c0 2.475.195 3.488.434 2.25.238-1.238.238-3.262 0-4.5-.239-1.238-.434-.225-.434 2.25m270.923-.5c.02 1.65.244 2.204.498 1.231.254-.973.237-2.323-.037-3-.274-.677-.481.119-.461 1.769m-220.867 7c.005 3.85.185 5.302.402 3.228.216-2.075.213-5.225-.008-7-.221-1.776-.398-.078-.394 3.772m221.944 1.5c0 2.475.195 3.488.434 2.25.238-1.238.238-3.262 0-4.5-.239-1.238-.434-.225-.434 2.25m-66.957 10.892c-6.753 5.03-9.311 7.351-5.235 4.748 1.419-.906 2.851-1.375 3.183-1.044.332.332 2.209.604 4.17.604 2.798 0 3.567.397 3.567 1.841 0 1.013.45 2.119 1 2.459.55.34 1 .141 1-.441s.661-1.059 1.469-1.059c.816 0 1.24.595.954 1.34-.283.737.207 1.938 1.088 2.669 1.283 1.065 1.541 1.072 1.295.035-.168-.712.257-1.5.945-1.753.722-.265 1.043.105.76.875-.806 2.194.768 3.599 4.738 4.228 6.277.996 13.007 4.592 11.651 6.227-1.134 1.366-.132 1.796 3.85 1.648.688-.026 1.25.409 1.25.967 0 .597 1.254.763 3.05.404 1.677-.335 2.849-.279 2.605.125-.245.404.183 1.315.95 2.024.767.71 1.395 1.031 1.395.715 0-.316.876-.105 1.947.468 1.071.573 3.063 1.134 4.428 1.247 1.364.113 2.27.547 2.012.964-.581.94 3.296 1.893 6.486 1.595 1.45-.136 2.802-1.205 3.479-2.75.609-1.39 1.418-2.758 1.798-3.038 1.422-1.049 2.232-6.344.838-5.483-.964.596-1.158.252-.746-1.324.475-1.818.022-2.222-3.093-2.755-13.578-2.326-33.254-9.455-52.149-18.894-2.29-1.144-3.019-.863-8.685 3.358m68.013 1.608c.005 3.85.185 5.302.402 3.228.216-2.075.213-5.225-.008-7-.221-1.776-.398-.078-.394 3.772m-236.105 3.75c-.711.869-.628 1.613.272 2.441 1.027.945 1.391.686 1.761-1.25.506-2.647-.406-3.181-2.033-1.191M178 419c0 .55.45 1 1 1s1-.45 1-1-.45-1-1-1-1 .45-1 1m-46.805 5.5c.02 1.65.244 2.204.498 1.231.254-.973.237-2.323-.037-3-.274-.677-.481.119-.461 1.769m272 1c.02 1.65.244 2.204.498 1.231.254-.973.237-2.323-.037-3-.274-.677-.481.119-.461 1.769m-223.116.083c.048 1.165.285 1.402.604.605.289-.722.253-1.585-.079-1.917-.332-.332-.568.258-.525 1.312m222 5c.048 1.165.285 1.402.604.605.289-.722.253-1.585-.079-1.917-.332-.332-.568.258-.525 1.312m-221 1c.048 1.165.285 1.402.604.605.289-.722.253-1.585-.079-1.917-.332-.332-.568.258-.525 1.312" fill-rule="evenodd"/><path fill="#e7e7e7" stroke="#e7e7e7" d="M0 271.002v271.001l286.25-.251 286.25-.252.252-270.75L573.004 0H0v271.002m.493.498c0 149.05.116 209.876.257 135.169.141-74.706.141-196.656 0-271C.608 61.326.493 122.45.493 271.5M267.105 36.583c-26.96 7.249-51.278 41.18-75.554 105.417-2.599 6.875-5.107 12.899-5.575 13.387-.467.488-6.616 1.701-13.663 2.695C88.843 169.864 51.706 191.676 51.567 229c-.102 27.512 21.243 57.726 67.857 96.052 7.659 6.296 14.966 12.348 16.239 13.448l2.315 2-1.963 11.847c-13.814 83.34-1.008 126.675 39.52 133.732 10.726 1.868 38.697-1.276 36.921-4.15-.308-.498.113-.648.935-.332 2.684 1.029 24.708-7.745 39.609-15.78 15.655-8.442 29.85-17.25 29.282-18.17-.325-.526-.097-.651.507-.278.603.374 3.485-.901 6.404-2.831 6.594-4.361 30.054-20.496 43.057-29.613 5.363-3.76 9.744-6.519 9.738-6.131-.007.389-1.47 1.678-3.25 2.866-1.781 1.188-6.613 4.532-10.738 7.433a2491.36 2491.36 0 0 1-17.048 11.84c-5.252 3.612-10.835 7.513-12.407 8.668l-2.857 2.102 14.178 7.194c7.798 3.957 14.688 6.879 15.31 6.494.643-.397.859-.257.5.324-1.636 2.648 42.089 18.89 58.392 21.69 35.905 6.168 61.084-9.045 68.603-41.448 4.454-19.197 1.737-55.806-6.765-91.157l-4.257-17.7 7.425-6.689C494.023 279.926 520 241.859 520 216.477c0-40.02-38.812-60.918-123.5-66.499-9.9-.652-18.021-1.252-18.048-1.332-1.246-3.83-18.278-38.263-24.262-49.051-28.361-51.13-56.245-71.306-87.085-63.012m10.482 56.452c-7.166 7.932-26.663 43.479-30.095 54.869l-.724 2.404 9.866-.65c5.426-.357 21.453-.947 35.616-1.312 17.544-.451 25.748-1.01 25.743-1.754-.026-4.031-24.203-42.662-31.788-50.792-2.412-2.585-4.093-5.172-3.736-5.75 1.619-2.62-1.592-.657-4.882 2.985m22.573 109.458c.271.271 2.833.937 5.694 1.479 18.125 3.438 40.2 18.594 49.848 34.224 1.98 3.209 3.776 5.659 3.99 5.445.33-.33-4.101-11.793-14.066-36.389l-2.126-5.248-21.917-.002c-12.054-.001-21.695.22-21.423.491m-58.529 2.051c-8.178.712-15.238 1.668-15.69 2.125-1.146 1.161-14.201 42.404-13.61 42.996.266.265 2.162-2.714 4.214-6.619 8.537-16.245 26.134-30.495 46.455-37.619l6.5-2.278-6.5.05c-3.575.028-13.191.633-21.369 1.345m166.073 14.706c2.996 7.838 8.282 22.687 11.746 32.999l6.299 18.749 9.875-10.265c11.815-12.28 23.069-26.118 27.585-33.917 2.893-4.997 3.593-5.618 5.791-5.132 2.267.501 2.183.311-.901-2.034-6.466-4.916-25.433-9.871-50.535-13.2-17.291-2.293-16.18-3.734-9.86 12.8M149.5 216.485c-24.375 5.425-44.511 12.849-44.49 16.404.015 2.611 7.126 12.976 15.169 22.111 7.906 8.979 26.937 27 28.513 27 .512 0 2.161-5.612 3.664-12.47 1.503-6.859 5.406-22.047 8.674-33.75 3.268-11.704 5.948-21.618 5.956-22.03.02-1.093-.998-.934-17.486 2.735m126.775 38.111c-15.283 5.621-24.137 25.198-18.34 40.551 5.003 13.252 15.3 20.335 29.565 20.335 40.911 0 42.501-60.827 1.625-62.159-5.934-.193-9.943.204-12.85 1.273m92.198 30.252c-.037 19.713-4.685 33.796-16.084 48.73-1.857 2.432-3.094 4.422-2.749 4.422.659 0 20.227-16.339 28.052-23.424l4.585-4.151-5.201-16.462c-2.861-9.055-5.656-17.919-6.212-19.699-1.902-6.095-2.364-4.053-2.391 10.584M201.82 287.5c-2.01 8.25-4.426 18.553-5.37 22.896l-1.716 7.895 2.383 1.891c3.036 2.409 29.406 20.89 33.383 23.395 2.35 1.481 1.857.624-2.28-3.957-14.846-16.439-20.948-31.39-22.092-54.12l-.653-13-3.655 15m-62.27 54.387c.522.488 9.725 7.251 20.45 15.029s20.687 15.142 22.138 16.363l2.637 2.221-1.337 12c-2.546 22.848-1.424 48.801 2.17 50.18 3.977 1.526 47.205-16.678 56.731-23.891 1.681-1.272.523-2.2-13.5-10.822-15.607-9.594-42.93-27.634-43.839-28.943-.275-.396-6.125-4.697-13-9.557-6.875-4.861-16.866-12.129-22.202-16.152-5.336-4.023-10.038-7.315-10.45-7.315-.411 0-.32.399.202.887m178.052 17.811c-16.511 6.919-39.475 7.257-57.508.847-2.423-.862-4.583-1.389-4.8-1.173-.558.558 35.522 21.632 36.993 21.607.951-.016 30.08-21.013 32.478-23.41 1.034-1.035-1.191-.373-7.163 2.129M385 375.641c-5.775 4.711-17.587 13.938-26.25 20.505-8.663 6.567-15.749 12.258-15.748 12.647.009 2.4 38.69 17.445 50.928 19.808 8.68 1.676 8.992 1.467 9.131-6.101.051-2.75.229-5.695.397-6.543.758-3.843-3.139-34.278-5.982-46.707-.724-3.169-.811-3.124-12.476 6.391m35.813 98.042c.721.289 1.584.253 1.916-.079.332-.332-.258-.568-1.312-.525-1.165.048-1.402.285-.604.604" fill-rule="evenodd"/><path fill="#cecfce" stroke="#cecfce" d="M0 271.002v271.001l286.25-.251 286.25-.252.252-270.75L573.004 0H0v271.002m.493.498c0 149.05.116 209.876.257 135.169.141-74.706.141-196.656 0-271C.608 61.326.493 122.45.493 271.5M270.5 35.408c-29.452 6.747-54.392 40.208-79.076 106.092l-5.245 14-3.839.68c-2.112.374-11.455 1.878-20.761 3.341-77.856 12.24-112.238 34.803-110.348 72.414 1.41 28.058 26.237 60.648 76.746 100.746l9.619 7.636-1.703 10.592c-12.008 74.651-5.362 112.343 22.817 129.403 26.68 16.153 69.188 4.331 133.831-37.22 1.821-1.171 3.807-.429 18.382 6.87 67.59 33.844 102.643 37.945 126.72 14.826 13.155-12.633 16.848-24.989 16.823-56.288-.019-24.814-1.377-35.157-8.468-64.508l-3.943-16.32 17.142-16.586c42.887-41.494 60.699-69.529 60.779-95.654.121-40.008-41.528-61.445-128.356-66.065l-12.879-.686-3.441-7.59C338.76 60.486 305.859 27.308 270.5 35.408m4.826 60.771c-6.814 8.447-21.564 36.167-27.366 51.427l-1.009 2.653 5.274-.611c2.901-.335 18.888-.914 35.525-1.284 16.637-.371 30.25-.904 30.25-1.185 0-3.675-24.225-42.609-32.027-51.472-5.169-5.872-5.543-5.855-10.647.472m32.352 107.802c20.004 5.273 37.416 17.616 48.668 34.501 1.46 2.19 2.654 3.751 2.654 3.468 0-.502-8.371-21.515-13.325-33.45l-2.491-6-21.342-.206-21.342-.205 7.178 1.892m-55.678.037c-5.225.4-13.213 1.056-17.751 1.459l-8.252.731-6.498 20.1c-7.397 22.876-7.685 24.311-3.353 16.692 10.124-17.804 26.586-31.166 46.354-37.624 8.002-2.614 7.224-2.714-10.5-1.358m151 1.608c0 .24 3.555 9.984 7.899 21.655 4.344 11.67 9.407 26.048 11.25 31.95 1.843 5.902 3.637 10.739 3.986 10.75 3.769.114 41.678-46.983 40.568-50.4-.57-1.754-11.253-5.591-22.621-8.126-12.91-2.879-41.082-6.876-41.082-5.829M153.403 216.03c-20.284 4.242-42.005 11.207-46.631 14.954l-2.132 1.726 2.834 4.895c7.401 12.78 40.707 47.118 41.944 43.243.236-.741 1.647-6.748 3.135-13.348 1.487-6.6 5.328-21.431 8.534-32.958 3.207-11.527 5.737-21.024 5.622-21.104-.115-.081-6.103 1.086-13.306 2.592m122.954 38.992c-28.07 11.125-25.818 51.676 3.307 59.56 25.067 6.785 47.114-18.949 36.599-42.721-6.694-15.133-24.865-22.801-39.906-16.839m93.251 23.667c1.521 16.367-4.699 37.777-15.302 52.67-1.902 2.672-3.007 4.697-2.454 4.5 2.802-1.001 30.147-25.419 29.718-26.538-.27-.703-2.975-9.23-6.012-18.948-6.357-20.347-6.844-21.302-5.95-11.684m-165.141-1.439c-.259.688-2.483 10.209-4.942 21.159-4.187 18.637-4.362 19.994-2.749 21.236 2.748 2.117 32.568 22.934 34.224 23.892.825.478-1.528-2.457-5.228-6.521-12.415-13.635-19.753-32.354-20.096-51.263-.176-9.757-.33-10.839-1.209-8.503m115.37 81.773c-13.174 6.96-37.555 8.64-53.833 3.708-4.672-1.415-8.6-2.468-8.728-2.341-.811.812 34.835 20.663 35.927 20.008 3.29-1.976 29.802-21.597 30.325-22.443.773-1.251.611-1.204-3.691 1.068M386 375.154c-5.225 4.405-17.02 13.705-26.211 20.666-9.191 6.962-16.391 12.957-16 13.321 4.286 3.998 42.854 18.331 52.313 19.442 6.787.797 6.873.626 6.866-13.583-.006-12.437-5.086-48.123-6.822-47.927-.355.04-4.921 3.677-10.146 8.081m-201.45 4.689c-3.464 26.376-3.11 53.065.753 56.82 2.673 2.599 23.947-5.272 45.197-16.722 14.538-7.833 14.332-6.627 2.374-13.933-5.706-3.485-18.775-11.846-29.043-18.58l-18.669-12.243-.612 4.658" fill-rule="evenodd"/><path fill="#040404" stroke="#040404" d="M0 271.002v271.001l286.25-.251 286.25-.252.252-270.75L573.004 0H0v271.002m.493.498c0 149.05.116 209.876.257 135.169.141-74.706.141-196.656 0-271C.608 61.326.493 122.45.493 271.5M268.265 35.542c-29.123 7.843-55.365 44.903-79.681 112.531l-2.723 7.574-13.3 1.718c-55.094 7.116-97.303 22.989-111.434 41.906-25.851 34.604-5.954 74.98 65.373 132.66 4.95 4.003 9.347 7.601 9.772 7.995.424.395-.343 8.11-1.706 17.146-9.482 62.864-4.773 98.623 15.434 117.198 25.499 23.439 65.178 16.524 129.16-22.509l15.66-9.553 16.34 8.303c46.551 23.654 76.998 32.289 99.367 28.181 44.1-8.097 55.945-53.472 35.559-136.222l-3.727-15.128 11.468-10.421c47.023-42.73 70.827-81.652 66.374-108.525-5.816-35.099-44.062-53.752-120.701-58.866-4.95-.33-11.584-.854-14.743-1.163l-5.742-.562-10.315-21.152c-35.812-73.438-65.628-100.486-100.435-91.111m8.283 59.673c-5.43 6.344-14.163 21.519-21.737 37.772-7.513 16.124-7.888 17.493-4.561 16.679 2.112-.516 41.394-2.465 59.417-2.948l8.167-.218-6.986-12.5c-10.944-19.582-24.95-39.799-29.234-42.196-1.03-.577-2.499.413-5.066 3.411m35.639 109.788c18.064 6.014 30.892 15.096 41.467 29.357 2.391 3.223 4.346 5.63 4.346 5.349 0-2.78-15.083-36.227-16.606-36.825-1.042-.409-9.994-.75-19.894-.759l-18-.015 8.687 2.893m-69.187.08c-18.496 1.407-16.129-.575-22.339 18.708-7.36 22.853-7.303 22.512-2.557 15.209 8.833-13.592 23.379-25.605 38.396-31.713l8-3.253-5.5.125c-3.025.069-10.225.485-16 .924m167.872 21.034c4.202 11.211 9.212 25.439 11.134 31.617 1.922 6.179 3.789 11.242 4.15 11.25 2.956.07 34.222-36.924 38.814-45.925l1.96-3.843-4.715-2.025c-9.058-3.891-34.585-9.208-51.849-10.799l-7.133-.658 7.639 20.383m-260.618-9.074c-15.085 3.275-36.144 10.009-41.601 13.303l-3.683 2.223 3.555 5.903c5.527 9.178 13.777 18.701 27.432 31.663 12.42 11.792 12.55 11.881 13.282 9.137.406-1.525 2.973-11.79 5.703-22.812 2.731-11.022 6.495-25.085 8.364-31.25 2.875-9.484 3.152-11.197 1.796-11.127-.881.046-7.563 1.378-14.848 2.96m130.48 37.045c-23.73 5.591-32.051 34.767-14.824 51.976 18.403 18.383 49.176 7.506 52.52-18.564 2.619-20.42-17.426-38.187-37.696-33.412m88.991 32.481c-.804 16.976-7.139 35.61-15.5 45.59-4.547 5.427 5.123-2.145 22.203-17.386l4.928-4.397-5.533-17.869-5.534-17.869-.564 11.931M200.726 295c-5.831 25.499-5.973 22.715 1.437 28.134 3.485 2.548 10.926 7.8 16.535 11.67l10.199 7.036-5.933-7.466c-10.463-13.166-16.589-29.253-17.825-46.809l-.639-9.065-3.774 16.5m116.045 65.631c-15.989 6.71-37.971 7.036-56.271.834-2.669-.905 2.275 2.236 18.371 11.668l13.37 7.836 13.187-9.734c7.252-5.354 14.285-10.499 15.629-11.433 3.135-2.178 2.66-2.086-4.286.829m68.729 15.52c-5.5 4.475-17.098 13.551-25.773 20.169-8.676 6.618-15.409 12.398-14.964 12.843 3.728 3.728 42.057 17.988 51.899 19.308l5.161.692.717-6.69c1.041-9.721-4.293-54.495-6.489-54.465-.303.004-5.051 3.668-10.551 8.143m-200.838 5.099c-3.813 32.642-2.634 55.75 2.843 55.75 4.545 0 18.381-5.35 34.995-13.531 23.267-11.457 22.148-10.006 12.268-15.909-11.166-6.672-25.046-15.542-38.029-24.3-5.919-3.993-10.919-7.26-11.112-7.26-.194 0-.628 2.363-.965 5.25" fill-rule="evenodd"/></svg>